<svg width="529" height="529" viewBox="0 0 529 529" fill="none" xmlns="http://www.w3.org/2000/svg">
<path d="M491.228 176.307H465.935V352.695H491.228V176.307Z" fill="white"/>
<path d="M465.935 352.695H440.807V377.823H465.935V352.695Z" fill="white"/>
<path d="M465.935 151.179H440.807V176.306H465.935V151.179Z" fill="white"/>
<path d="M440.807 176.307H390.386V201.435H440.807V176.307Z" fill="white"/>
<path d="M440.807 377.823H390.386V403.116H440.807V377.823Z" fill="white"/>
<path d="M415.678 151.179V125.887H390.385V100.759H340.13V125.887H314.837V151.179H340.13V176.307H390.385V151.179H415.678Z" fill="white"/>
<path d="M390.387 201.434H340.132V226.727H390.387V201.434Z" fill="white"/>
<path d="M390.387 403.115H340.132V428.242H390.387V403.115Z" fill="white"/>
<path d="M289.709 478.662V453.37H340.129V428.242H289.709V251.854H239.289V277.146H264.416V453.37H239.289V478.662H289.709Z" fill="white"/>
<path d="M340.132 226.727H289.711V251.854H340.132V226.727Z" fill="white"/>
<path d="M289.713 201.434H314.84V176.306H289.713V151.179H239.292V176.306H214.165V201.434H239.292V226.727H289.713V201.434Z" fill="white"/>
<path d="M239.292 50.3385V75.6313H214.165V100.759H239.292V125.886H289.713V100.759H314.84V75.6313H289.713V50.3385H239.292Z" fill="white"/>
<path d="M239.29 428.242H188.87V453.369H239.29V428.242Z" fill="white"/>
<path d="M239.29 226.727H188.87V251.854H239.29V226.727Z" fill="white"/>
<path d="M188.869 403.115H138.614V428.242H188.869V403.115Z" fill="white"/>
<path d="M188.869 151.179H214.162V125.887H188.869V100.759H138.614V125.887H113.321V151.179H138.614V176.307H188.869V151.179Z" fill="white"/>
<path d="M188.869 201.434H138.614V226.727H188.869V201.434Z" fill="white"/>
<path d="M138.615 377.823H88.1951V403.116H138.615V377.823Z" fill="white"/>
<path d="M138.615 176.307H88.1951V201.435H138.615V176.307Z" fill="white"/>
<path d="M88.1952 352.695H62.9023V377.823H88.1952V352.695Z" fill="white"/>
<path d="M88.1952 151.179H62.9023V176.306H88.1952V151.179Z" fill="white"/>
<path d="M62.9017 176.307H37.7742V352.695H62.9017V176.307Z" fill="white"/>
</svg>
