<svg width="101" height="62" viewBox="0 0 101 62" fill="none" xmlns="http://www.w3.org/2000/svg">
<path d="M95.3615 9.5457H90.6044V14.3341H95.3615V19.0912H90.6044V23.8484H95.3615V28.6368H90.6044V33.3939H95.3615V38.151H90.6044V42.9394H95.3615V47.6965H90.6044V52.485H95.3615V57.2421H100.15V4.78857H95.3615V9.5457Z" fill="black"/>
<path d="M85.8473 52.4849H81.0589V57.242H76.3018V52.4849H71.5446V57.242H66.7562V52.4849H61.9991V57.242H57.2107V52.4849H52.4536V57.242H47.6964V52.4849H42.908V57.242H38.1509V52.4849H33.3625V57.242H28.6054V52.4849H23.8483V57.242H19.0598V52.4849H14.3027V57.242H4.75718V61.9991H95.3615V57.242H85.8473V52.4849Z" fill="black"/>
<path d="M81.0589 14.3337H71.5446V19.0909H66.7562V28.6364H71.5446V33.3935H81.0589V28.6364H85.8473V19.0909H81.0589V14.3337Z" fill="black"/>
<path d="M42.908 42.9392H14.3027V47.6963H42.908V42.9392Z" fill="black"/>
<path d="M33.3625 33.3939H14.3027V38.151H33.3625V33.3939Z" fill="black"/>
<path d="M14.3027 9.54554H19.0598V4.78842H23.8483V9.54554H28.6054V4.78842H33.3625V9.54554H38.1509V4.78842H42.908V9.54554H47.6964V4.78842H52.4536V9.54554H57.2107V4.78842H61.9991V9.54554H66.7562V4.78842H71.5446V9.54554H76.3018V4.78842H81.0589V9.54554H85.8473V4.78842H95.3615V0H4.75718V4.78842H14.3027V9.54554Z" fill="black"/>
<path d="M9.54554 52.485V47.6965H4.75712V42.9394H9.54554V38.151H4.75712V33.3939H9.54554V28.6368H4.75712V23.8484H9.54554V19.0912H4.75712V14.3341H9.54554V9.5457H4.75712V4.78857H0V57.2421H4.75712V52.485H9.54554Z" fill="black"/>
</svg>
