<svg width="331" height="202" viewBox="0 0 331 202" fill="none" xmlns="http://www.w3.org/2000/svg">
<path d="M12.688 179.048C13.338 179.048 13.754 179.464 13.754 180.062C13.754 180.66 13.338 181.076 12.688 181.076H8.372V194.882C8.372 195.506 7.982 196 7.306 196C6.656 196 6.24 195.506 6.24 194.882V181.076H1.95C1.3 181.076 0.884 180.66 0.884 180.062C0.884 179.464 1.3 179.048 1.95 179.048H12.688ZM19.9808 196.182C16.2888 196.182 13.6108 193.452 13.6108 189.604C13.6108 185.756 16.3148 182.818 20.2928 182.818C23.8548 182.818 26.6368 184.924 26.6368 188.538V194.908C26.6368 195.532 26.2468 196 25.5968 196C24.9468 196 24.5568 195.532 24.5568 194.934V194.024H24.4008C23.8808 194.804 22.5808 196.182 19.9808 196.182ZM15.7168 189.5C15.7168 192.386 17.2768 194.258 20.1108 194.258C22.8668 194.258 24.5568 192.594 24.5568 190.15V188.642C24.5568 186.042 22.8148 184.768 20.3448 184.768C17.2768 184.768 15.7168 186.77 15.7168 189.5ZM30.0773 188.616C30.0773 184.924 32.8853 182.818 36.3433 182.818C40.4253 182.818 43.1293 185.756 43.1293 189.63C43.1293 193.452 40.4253 196.182 36.7853 196.182C34.5753 196.182 32.9633 195.194 32.3133 193.946H32.1833V198.86C32.1833 199.484 31.7673 199.952 31.1173 199.952C30.4673 199.952 30.0773 199.484 30.0773 198.86V188.616ZM32.1833 190.15C32.1833 192.75 34.0033 194.258 36.6033 194.258C39.4373 194.258 40.9973 192.386 40.9973 189.526C40.9973 186.77 39.4373 184.768 36.3693 184.768C33.8993 184.768 32.1833 186.042 32.1833 188.72V190.15ZM53.5519 180.14C53.5519 179.49 53.9419 179.022 54.5919 179.022C55.2419 179.022 55.6579 179.49 55.6579 180.14V183H58.5699C59.1939 183 59.6359 183.364 59.6359 183.962C59.6359 184.586 59.1939 184.95 58.5699 184.95H55.6579V191.32C55.6579 193.322 56.5939 193.998 57.9459 193.998H58.6479C59.2719 193.998 59.6879 194.362 59.6879 195.012C59.6879 195.636 59.2719 196 58.6479 196H57.9459C55.4239 196 53.5519 194.726 53.5519 191.32V184.95H52.1999C51.5759 184.95 51.1079 184.586 51.1079 183.962C51.1079 183.364 51.5759 183 52.1999 183H53.5519V180.14ZM69.1783 182.818C71.9603 182.818 74.2483 184.404 74.2483 187.914V194.908C74.2483 195.532 73.8323 196 73.1823 196C72.5323 196 72.1423 195.532 72.1423 194.908V187.914C72.1423 185.808 70.8423 184.794 68.7623 184.794C65.9283 184.794 64.9143 186.562 64.9143 187.732V194.908C64.9143 195.532 64.4983 196 63.8483 196C63.1983 196 62.8083 195.532 62.8083 194.908V178.84C62.8083 178.216 63.1983 177.748 63.8483 177.748C64.4983 177.748 64.9143 178.216 64.9143 178.84V184.794H65.0443C65.6683 183.832 67.0723 182.818 69.1783 182.818ZM87.4088 188.278C87.4088 186.068 85.6928 184.664 83.5348 184.664C81.3508 184.664 79.7388 186.068 79.3228 188.278H87.4088ZM77.1128 189.5C77.1128 185.574 79.8688 182.818 83.5348 182.818C87.0188 182.818 89.4628 185.21 89.4628 187.966C89.4628 189.89 88.1628 190.046 87.6688 190.046H79.2448C79.5048 192.62 81.3508 194.258 83.8988 194.258C85.1468 194.258 86.1088 193.842 86.7588 193.322C87.1488 193.036 87.4088 192.984 87.6168 192.984C88.2668 192.984 88.5788 193.478 88.5788 193.998C88.5788 194.31 88.4488 194.622 87.9548 194.934C86.9928 195.636 85.5368 196.182 83.8468 196.182C79.6868 196.182 77.1128 193.322 77.1128 189.5ZM107.994 186.172C107.162 185.314 106.122 184.768 104.64 184.768C101.936 184.768 100.09 186.77 100.09 189.5C100.09 192.23 101.936 194.232 104.64 194.232C106.252 194.232 107.396 193.53 108.124 192.646C108.358 192.412 108.592 192.334 108.878 192.334C109.398 192.334 109.892 192.724 109.892 193.374C109.892 193.634 109.788 193.842 109.606 194.076C108.644 195.194 106.902 196.182 104.588 196.182C100.818 196.182 97.9838 193.348 97.9838 189.5C97.9838 185.652 100.818 182.818 104.614 182.818C106.772 182.818 108.436 183.65 109.424 184.742C109.632 184.95 109.736 185.184 109.736 185.47C109.736 186.042 109.32 186.484 108.722 186.484C108.436 186.484 108.202 186.38 107.994 186.172ZM118.496 196.182C114.804 196.182 112.126 193.452 112.126 189.604C112.126 185.756 114.83 182.818 118.808 182.818C122.37 182.818 125.152 184.924 125.152 188.538V194.908C125.152 195.532 124.762 196 124.112 196C123.462 196 123.072 195.532 123.072 194.934V194.024H122.916C122.396 194.804 121.096 196.182 118.496 196.182ZM114.232 189.5C114.232 192.386 115.792 194.258 118.626 194.258C121.382 194.258 123.072 192.594 123.072 190.15V188.642C123.072 186.042 121.33 184.768 118.86 184.768C115.792 184.768 114.232 186.77 114.232 189.5ZM135.847 183.156C136.315 183.312 136.627 183.65 136.627 184.144C136.627 184.69 136.211 185.132 135.639 185.132C135.561 185.132 135.405 185.106 135.327 185.08C135.015 184.95 134.651 184.794 134.105 184.794C132.025 184.794 130.699 186.432 130.699 188.85V194.908C130.699 195.532 130.283 196 129.633 196C128.983 196 128.593 195.532 128.593 194.908V184.092C128.593 183.468 128.983 183 129.633 183C130.283 183 130.699 183.468 130.699 184.092V185.002H130.803C131.219 184.04 132.623 182.818 134.313 182.818C134.937 182.818 135.405 182.974 135.847 183.156ZM148.59 188.85C148.59 186.38 146.848 184.742 144.144 184.742C141.31 184.742 139.75 186.588 139.75 189.474C139.75 192.23 141.31 194.232 144.378 194.232C146.848 194.232 148.59 192.724 148.59 190.124V188.85ZM137.644 189.396C137.644 185.548 140.27 182.818 143.962 182.818C146.718 182.818 148.07 184.378 148.434 185.002H148.59V178.84C148.59 178.216 148.98 177.748 149.63 177.748C150.28 177.748 150.67 178.216 150.67 178.84V190.202C150.67 193.842 147.888 196.182 144.3 196.182C140.322 196.182 137.644 193.244 137.644 189.396ZM161.792 180.14C161.792 179.49 162.182 179.022 162.832 179.022C163.482 179.022 163.898 179.49 163.898 180.14V183H166.81C167.434 183 167.876 183.364 167.876 183.962C167.876 184.586 167.434 184.95 166.81 184.95H163.898V191.32C163.898 193.322 164.834 193.998 166.186 193.998H166.888C167.512 193.998 167.928 194.362 167.928 195.012C167.928 195.636 167.512 196 166.888 196H166.186C163.664 196 161.792 194.726 161.792 191.32V184.95H160.44C159.816 184.95 159.348 184.586 159.348 183.962C159.348 183.364 159.816 183 160.44 183H161.792V180.14ZM176.521 196.182C172.673 196.182 169.865 193.348 169.865 189.5C169.865 185.652 172.673 182.818 176.521 182.818C180.395 182.818 183.203 185.652 183.203 189.5C183.203 193.348 180.395 196.182 176.521 196.182ZM171.971 189.5C171.971 192.23 173.791 194.232 176.521 194.232C179.251 194.232 181.097 192.23 181.097 189.5C181.097 186.77 179.251 184.768 176.521 184.768C173.791 184.768 171.971 186.77 171.971 189.5ZM198.326 195.922C194.634 195.922 191.904 193.4 191.904 189.578C191.904 185.782 194.582 182.818 198.664 182.818C202.148 182.818 204.93 184.924 204.93 188.538V194.752C204.93 198.548 202.434 201.252 198.222 201.252C196.35 201.252 194.478 200.784 193.62 200.134C193.256 199.874 193.126 199.562 193.126 199.25C193.126 198.704 193.568 198.236 194.14 198.236C194.296 198.236 194.478 198.262 194.634 198.34C195.362 198.626 196.48 199.302 198.352 199.302C200.978 199.302 202.85 197.82 202.85 194.778V193.712H202.694C202.018 194.7 200.588 195.922 198.326 195.922ZM194.01 189.526C194.01 192.204 195.518 194.076 198.43 194.076C201.134 194.076 202.85 192.464 202.85 190.02V188.642C202.85 186.042 201.108 184.768 198.664 184.768C195.622 184.768 194.01 186.77 194.01 189.526ZM218.094 188.278C218.094 186.068 216.378 184.664 214.22 184.664C212.036 184.664 210.424 186.068 210.008 188.278H218.094ZM207.798 189.5C207.798 185.574 210.554 182.818 214.22 182.818C217.704 182.818 220.148 185.21 220.148 187.966C220.148 189.89 218.848 190.046 218.354 190.046H209.93C210.19 192.62 212.036 194.258 214.584 194.258C215.832 194.258 216.794 193.842 217.444 193.322C217.834 193.036 218.094 192.984 218.302 192.984C218.952 192.984 219.264 193.478 219.264 193.998C219.264 194.31 219.134 194.622 218.64 194.934C217.678 195.636 216.222 196.182 214.532 196.182C210.372 196.182 207.798 193.322 207.798 189.5ZM223.974 180.14C223.974 179.49 224.364 179.022 225.014 179.022C225.664 179.022 226.08 179.49 226.08 180.14V183H228.992C229.616 183 230.058 183.364 230.058 183.962C230.058 184.586 229.616 184.95 228.992 184.95H226.08V191.32C226.08 193.322 227.016 193.998 228.368 193.998H229.07C229.694 193.998 230.11 194.362 230.11 195.012C230.11 195.636 229.694 196 229.07 196H228.368C225.846 196 223.974 194.726 223.974 191.32V184.95H222.622C221.998 184.95 221.53 184.586 221.53 183.962C221.53 183.364 221.998 183 222.622 183H223.974V180.14ZM246.804 183.156C247.272 183.312 247.584 183.65 247.584 184.144C247.584 184.69 247.168 185.132 246.596 185.132C246.518 185.132 246.362 185.106 246.284 185.08C245.972 184.95 245.608 184.794 245.062 184.794C242.982 184.794 241.656 186.432 241.656 188.85V194.908C241.656 195.532 241.24 196 240.59 196C239.94 196 239.55 195.532 239.55 194.908V184.092C239.55 183.468 239.94 183 240.59 183C241.24 183 241.656 183.468 241.656 184.092V185.002H241.76C242.176 184.04 243.58 182.818 245.27 182.818C245.894 182.818 246.362 182.974 246.804 183.156ZM258.897 188.278C258.897 186.068 257.181 184.664 255.023 184.664C252.839 184.664 251.227 186.068 250.811 188.278H258.897ZM248.601 189.5C248.601 185.574 251.357 182.818 255.023 182.818C258.507 182.818 260.951 185.21 260.951 187.966C260.951 189.89 259.651 190.046 259.157 190.046H250.733C250.993 192.62 252.839 194.258 255.387 194.258C256.635 194.258 257.597 193.842 258.247 193.322C258.637 193.036 258.897 192.984 259.105 192.984C259.755 192.984 260.067 193.478 260.067 193.998C260.067 194.31 259.937 194.622 259.443 194.934C258.481 195.636 257.025 196.182 255.335 196.182C251.175 196.182 248.601 193.322 248.601 189.5ZM269.623 195.922C265.931 195.922 263.201 193.4 263.201 189.578C263.201 185.782 265.879 182.818 269.961 182.818C273.445 182.818 276.227 184.924 276.227 188.538V194.752C276.227 198.548 273.731 201.252 269.519 201.252C267.647 201.252 265.775 200.784 264.917 200.134C264.553 199.874 264.423 199.562 264.423 199.25C264.423 198.704 264.865 198.236 265.437 198.236C265.593 198.236 265.775 198.262 265.931 198.34C266.659 198.626 267.777 199.302 269.649 199.302C272.275 199.302 274.147 197.82 274.147 194.778V193.712H273.991C273.315 194.7 271.885 195.922 269.623 195.922ZM265.307 189.526C265.307 192.204 266.815 194.076 269.727 194.076C272.431 194.076 274.147 192.464 274.147 190.02V188.642C274.147 186.042 272.405 184.768 269.961 184.768C266.919 184.768 265.307 186.77 265.307 189.526ZM280.941 180.374C280.161 180.374 279.589 179.828 279.589 179.048C279.589 178.268 280.161 177.722 280.941 177.722C281.721 177.722 282.267 178.268 282.267 179.048C282.267 179.828 281.721 180.374 280.941 180.374ZM279.875 194.908V184.092C279.875 183.468 280.291 183 280.941 183C281.565 183 281.981 183.468 281.981 184.092V194.908C281.981 195.532 281.565 196 280.941 196C280.291 196 279.875 195.532 279.875 194.908ZM287.739 186.224C287.739 189.032 295.097 187.784 295.097 192.282C295.097 194.596 293.121 196.182 290.183 196.182C287.739 196.182 286.179 195.168 285.399 194.232C285.165 193.946 285.035 193.712 285.035 193.426C285.035 192.854 285.477 192.438 286.023 192.438C286.413 192.438 286.673 192.62 286.829 192.802C287.531 193.686 288.597 194.362 290.261 194.362C291.951 194.362 293.043 193.66 293.043 192.464C293.043 189.526 285.737 190.722 285.737 186.38C285.737 184.118 287.713 182.818 290.131 182.818C291.847 182.818 293.485 183.468 294.343 184.404C294.525 184.586 294.655 184.768 294.655 185.08C294.655 185.652 294.239 186.068 293.719 186.068C293.485 186.068 293.251 185.99 293.069 185.834C292.237 185.054 291.301 184.638 290.105 184.638C288.623 184.638 287.739 185.236 287.739 186.224ZM299.155 180.14C299.155 179.49 299.545 179.022 300.195 179.022C300.845 179.022 301.261 179.49 301.261 180.14V183H304.173C304.797 183 305.239 183.364 305.239 183.962C305.239 184.586 304.797 184.95 304.173 184.95H301.261V191.32C301.261 193.322 302.197 193.998 303.549 193.998H304.251C304.875 193.998 305.291 194.362 305.291 195.012C305.291 195.636 304.875 196 304.251 196H303.549C301.027 196 299.155 194.726 299.155 191.32V184.95H297.803C297.179 184.95 296.711 184.586 296.711 183.962C296.711 183.364 297.179 183 297.803 183H299.155V180.14ZM317.524 188.278C317.524 186.068 315.808 184.664 313.65 184.664C311.466 184.664 309.854 186.068 309.438 188.278H317.524ZM307.228 189.5C307.228 185.574 309.984 182.818 313.65 182.818C317.134 182.818 319.578 185.21 319.578 187.966C319.578 189.89 318.278 190.046 317.784 190.046H309.36C309.62 192.62 311.466 194.258 314.014 194.258C315.262 194.258 316.224 193.842 316.874 193.322C317.264 193.036 317.524 192.984 317.732 192.984C318.382 192.984 318.694 193.478 318.694 193.998C318.694 194.31 318.564 194.622 318.07 194.934C317.108 195.636 315.652 196.182 313.962 196.182C309.802 196.182 307.228 193.322 307.228 189.5ZM329.501 183.156C329.969 183.312 330.281 183.65 330.281 184.144C330.281 184.69 329.865 185.132 329.293 185.132C329.215 185.132 329.059 185.106 328.981 185.08C328.669 184.95 328.305 184.794 327.759 184.794C325.679 184.794 324.353 186.432 324.353 188.85V194.908C324.353 195.532 323.937 196 323.287 196C322.637 196 322.247 195.532 322.247 194.908V184.092C322.247 183.468 322.637 183 323.287 183C323.937 183 324.353 183.468 324.353 184.092V185.002H324.457C324.873 184.04 326.277 182.818 327.967 182.818C328.591 182.818 329.059 182.974 329.501 183.156Z" fill="#F0C255"/>
<circle cx="144" cy="79" r="16.5" fill="#FFEBBD" stroke="#FFE5A8" stroke-width="3"/>
<path d="M157 133C186.823 133 211 108.823 211 79C211 49.1766 186.823 25 157 25" stroke="#FFE5A8" stroke-width="10"/>
<path d="M135 133C105.177 133 81 108.823 81 79C81 49.1766 105.177 25 135 25" stroke="#FFE5A8" stroke-width="10"/>
<path d="M108 153C67.1309 153 34 119.869 34 79C34 38.1309 67.1309 5 108 5" stroke="#FFE5A8" stroke-width="10"/>
<path d="M184 153C224.869 153 258 119.869 258 79C258 38.1309 224.869 5 184 5" stroke="#FFE5A8" stroke-width="10"/>
</svg>
